<?xml version="1.0" encoding="iso-8859-1"?>

<!DOCTYPE svg PUBLIC "-//W3C//DTD SVG 1.1//EN" "http://www.w3.org/Graphics/SVG/1.1/DTD/svg11.dtd">
<!-- Uploaded to: SVG Repo, www.svgrepo.com, Generator: SVG Repo Mixer Tools -->
<svg height="800px" width="800px" version="1.1" id="_x35_" xmlns="http://www.w3.org/2000/svg" xmlns:xlink="http://www.w3.org/1999/xlink" 
	 viewBox="0 0 512 512"  xml:space="preserve">
<g>
	<linearGradient id="SVGID_1_" gradientUnits="userSpaceOnUse" x1="82.421" y1="512" x2="82.421" y2="-64.642">
		<stop  offset="0" style="stop-color:#745B2C"/>
		<stop  offset="0.7635" style="stop-color:#886336"/>
	</linearGradient>
	<path style="opacity:0.9;fill:url(#SVGID_1_);" d="M164.003,308.394c-0.137,17.292-0.137,40.145-0.069,63.545
		c0.137,50.781,0.686,104.376,0.686,110.346c0,25.803-52.909,29.302-73.839,29.646c-2.265,0-4.186,0.069-5.696,0.069
		c-2.47,0-3.843-0.069-3.843-0.069c-6.108,0.137-34.106,0.137-55.448-6.245c-6.733-2.062-12.73-4.769-17.276-8.342
		c0.022,0.033,0.029,0.075,0.052,0.107c-0.618-0.48-1.236-0.96-1.853-1.509c-0.549-0.549-1.098-1.097-1.647-1.647
		c-0.48-0.549-0.961-1.097-1.441-1.716c-0.412-0.549-0.823-1.166-1.166-1.784c-0.343-0.686-0.686-1.303-0.961-1.99
		c-0.274-0.617-0.549-1.303-0.686-2.058c-0.206-0.617-0.343-1.236-0.412-1.922c-0.137-0.823-0.206-1.647-0.206-2.539v-2.196
		c0.069-5.489,0.137-18.803,0.274-36.164c0.069-7.686,0.137-16.195,0.137-25.116c0.069-2.95,0.069-5.97,0.069-9.059
		c0.069-12.283,0.069-25.116,0.137-37.811c0.137-23.469,0.137-46.253-0.069-63.545c0-2.745-0.069-5.422-0.069-7.892
		c0-1.235,0-2.402-0.069-3.569c-0.069-3.431-0.137-6.519-0.206-9.127c-0.069-1.716-0.137-3.295-0.206-4.598
		c-0.892-17.704,1.304-32.939,4.941-45.84c3.98-13.999,9.676-25.391,14.822-34.449c0.618-1.098,1.304-2.539,2.059-4.255
		c0.343-0.892,0.687-1.853,1.098-2.882c1.372-3.637,2.882-8.235,4.46-13.519c0.48-1.441,0.892-3.019,1.373-4.666
		c0.206-0.756,0.48-1.579,0.686-2.402c0.687-2.47,1.373-5.078,2.128-7.755c0.48-1.852,0.96-3.636,1.441-5.489
		c0.686-2.609,1.373-5.284,2.059-8.029c0.275-1.167,0.618-2.333,0.892-3.569c0.48-1.99,0.961-3.98,1.441-5.97
		c0.48-2.059,0.961-4.117,1.441-6.108c0.48-2.058,0.96-4.186,1.441-6.245c0.48-2.058,0.961-4.117,1.441-6.244
		c1.167-5.215,2.265-10.431,3.362-15.578c0.412-2.059,0.824-4.049,1.235-6.108c0.48-2.402,0.961-4.804,1.372-7.136
		c0.549-2.608,1.029-5.147,1.51-7.687c0.343-1.922,0.686-3.775,1.03-5.627c0.274-1.853,0.618-3.637,0.892-5.421
		c2.265-13.587,3.637-24.704,3.569-30.881c0-1.304,0-4.735,0.068-8.578h54.899v8.578c-0.343,25.665,24.979,138.208,34.929,155.57
		c10.019,17.431,21.822,43.302,19.832,80.289C164.346,288.493,164.14,297.277,164.003,308.394z"/>
	<path style="opacity:0.1;fill:#F7FBF5;" d="M60.518,53.183c0.344,25.665-24.979,138.208-34.929,155.57
		c-10.019,17.499-21.753,43.301-19.832,80.29c0.275,5.283,0.48,14.067,0.618,25.184c0.137,17.293,0.137,40.077,0.069,63.545
		c-0.137,46.527-0.618,95.387-0.686,107.876v2.471c0,3.499,1.03,6.656,2.814,9.332c-0.618-0.48-1.236-0.96-1.853-1.509
		c-0.549-0.549-1.098-1.097-1.647-1.647c-0.48-0.549-0.961-1.097-1.441-1.716c-0.412-0.549-0.823-1.166-1.166-1.784
		c-0.343-0.686-0.686-1.303-0.961-1.99c-0.274-0.617-0.549-1.303-0.686-2.058c-0.206-0.617-0.343-1.236-0.412-1.922
		c-0.137-0.823-0.206-1.647-0.206-2.539v-2.196c0.069-5.489,0.137-18.803,0.274-36.164c0.069-7.686,0.137-16.195,0.137-25.116
		c0.069-2.95,0.069-5.97,0.069-9.059c0.069-12.283,0.206-25.116,0.206-37.811c0.137-23.469,0.137-46.253-0.069-63.545
		c-0.069-2.745-0.069-5.422-0.137-7.892c0-1.235,0-2.402-0.069-3.569c0-3.431-0.069-6.519-0.206-9.127
		c-0.069-1.716-0.137-3.295-0.206-4.598c-0.892-17.704,1.304-32.939,4.941-45.84c4.049-13.999,9.744-25.391,14.891-34.449
		c0.617-1.098,1.304-2.539,1.99-4.255c0.412-0.892,0.755-1.853,1.098-2.882c1.372-3.637,2.882-8.235,4.46-13.519
		c0.48-1.441,0.892-3.019,1.373-4.666c0.206-0.756,0.48-1.579,0.686-2.402c0.687-2.539,1.441-5.078,2.128-7.755
		c0.48-1.852,0.96-3.636,1.441-5.489c0.686-2.609,1.373-5.284,2.059-8.029c0.275-1.167,0.618-2.333,0.892-3.569
		c0.48-1.99,0.961-3.98,1.441-5.97c0.48-2.059,0.961-4.117,1.441-6.108c0.48-2.058,0.96-4.186,1.441-6.245
		c0.48-2.058,0.961-4.117,1.441-6.244c1.167-5.215,2.265-10.431,3.362-15.578c0.412-2.059,0.824-4.049,1.235-6.108
		c0.48-2.402,0.961-4.804,1.372-7.136c0.549-2.608,1.029-5.147,1.51-7.687c0.343-1.922,0.686-3.775,1.03-5.627
		c0.274-1.853,0.618-3.637,0.892-5.421c2.333-13.587,3.705-24.704,3.637-30.881c0-1.304,0-4.735,0.069-8.578h5.49
		C60.518,42.615,60.45,51.88,60.518,53.183z"/>
	<path style="fill:#7B6329;" d="M109.859,38.772H54.96c0-2.882,0.069-5.97,0.137-8.578c0.069-1.03,0.069-1.99,0.069-2.814
		c0.069-1.647,0.206-2.813,0.274-3.362h53.938c0.068,0.549,0.137,1.716,0.206,3.362c0.069,0.824,0.069,1.784,0.069,2.814
		C109.79,32.802,109.859,35.89,109.859,38.772z"/>
	<g>
		<path style="fill:#F6E8E2;" d="M114.182,16.47v13.725h-65.81V16.47c0-7.548,6.176-13.725,13.725-13.725h38.36
			c1.716,0,3.431,0.343,4.941,0.961c3.568,1.372,6.451,4.255,7.823,7.823C113.839,13.039,114.182,14.754,114.182,16.47z"/>
		<path style="fill:#7D5E5B;" d="M114.182,13.656v13.725h-65.81V13.656C48.372,6.176,54.548,0,62.097,0h38.36
			c0.48,0,0.892,0,1.304,0.069c6.519,0.618,11.735,5.834,12.353,12.353C114.182,12.833,114.182,13.245,114.182,13.656z"/>
	</g>
	<g>
		<g>
			<path style="fill:#F7BD74;" d="M38.023,352.696l-1.115-4.365h-5.877l-9.488-41.37H38.05l1.247-3.988
				c7.439-23.764,23.911-39.127,41.973-39.17v-6.272c-20.794,0.044-38.702,17.78-46.647,43.156H13.394l12.597,53.918h7.252
				c7.118,27.883,25.954,47.908,48.027,47.954v-6.273C62.044,396.241,44.67,378.738,38.023,352.696z"/>
			<path style="fill:#F8E7B9;" d="M39.297,302.973l-1.247,3.988H21.544l9.488,41.37h5.877l1.115,4.365
				c6.647,26.042,24.021,43.544,43.247,43.59V263.803C63.208,263.846,46.736,279.209,39.297,302.973z"/>
		</g>
		<g>
			<path style="fill:#F7BD74;" d="M124.517,352.696l1.115-4.365h5.877l9.488-41.37H124.49l-1.247-3.988
				c-7.439-23.764-23.91-39.127-41.973-39.17v-6.272c20.794,0.044,38.702,17.78,46.647,43.156h21.229l-12.597,53.918h-7.252
				c-7.118,27.883-25.954,47.908-48.027,47.954v-6.273C100.496,396.241,117.87,378.738,124.517,352.696z"/>
			<path style="fill:#F8E7B9;" d="M123.243,302.973l1.247,3.988h16.506l-9.488,41.37h-5.877l-1.115,4.365
				c-6.647,26.042-24.021,43.544-43.247,43.59V263.803C99.332,263.846,115.804,279.209,123.243,302.973z"/>
		</g>
	</g>
	<polygon style="opacity:0.8;fill:#F7BD74;" points="81.27,301.517 86.504,317.625 103.441,317.625 89.739,327.581 94.973,343.69 
		81.27,333.734 67.567,343.69 72.801,327.581 59.098,317.625 76.036,317.625 	"/>
	<path style="opacity:0.1;fill:#040000;" d="M163.522,283.209c-1.716,31.361,0,188.646,0,199.077
		c0,25.253-51.124,29.165-72.741,29.646c-2.265,0-4.186,0.069-5.696,0.069c-2.47,0-3.843-0.069-3.843-0.069V0h19.215
		c0.48,0,0.892,0,1.304,0.069c6.519,0.618,11.735,5.834,12.353,12.353c0.068,0.412,0.068,0.824,0.068,1.235v16.538h-5.627
		c0.069,2.608,0.137,5.695,0.137,8.578c0.069,3.842,0.069,7.274,0.069,8.509c-0.343,25.734,24.91,138.208,34.93,155.638
		C153.64,220.35,165.444,246.222,163.522,283.209z"/>
</g>
</svg>