<?xml version="1.0" encoding="iso-8859-1"?>
<!-- Uploaded to: SVG Repo, www.svgrepo.com, Generator: SVG Repo Mixer Tools -->
<svg version="1.1" id="Layer_1" xmlns="http://www.w3.org/2000/svg" xmlns:xlink="http://www.w3.org/1999/xlink" 
	 viewBox="0 0 512 512" xml:space="preserve">
<circle style="fill:#8AD5DD;" cx="256" cy="256" r="256"/>
<path style="fill:#2D2D2D;" d="M68,352.664V125.008c0-4.04,3.456-7.344,7.672-7.344h360.656c4.224,0,7.672,3.304,7.672,7.344
	v227.656H68z"/>
<path style="fill:#E0E0E0;" d="M444,352.664V384c0,4.312-3.456,7.832-7.672,7.832H75.672c-4.216,0-7.672-3.52-7.672-7.832v-31.336
	H444z"/>
<polygon style="fill:#C9C9C9;" points="201.168,446.664 310.832,446.664 303,391.832 209,391.832 "/>
<g style="opacity:0.1;">
	<polygon style="fill:#2D2D2D;" points="303,391.832 209,391.832 204.12,426.008 304.824,404.608 	"/>
</g>
<rect x="173.752" y="446.664" style="fill:#E0E0E0;" width="164.496" height="7.832"/>
<g style="opacity:0.1;">
	<polygon style="fill:#2D2D2D;" points="209,391.832 303,391.832 303.528,395.536 206.56,408.92 	"/>
</g>
<rect x="83.192" y="132.856" style="fill:#DB2B42;" width="345.6" height="204.616"/>
<path style="fill:#FFFFFF;" d="M249.504,306.36v-17.064c-9.8-0.168-19.936-3.208-25.84-7.44l4.056-11.32
	c6.08,4.056,14.864,7.264,24.328,7.264c11.992,0,20.104-6.92,20.104-16.552c0-9.288-6.584-15.04-19.096-20.104
	c-17.224-6.768-27.872-14.528-27.872-29.232c0-14.016,9.968-24.664,25.512-27.192v-17.064h10.472v16.384
	c10.144,0.344,17.064,3.048,21.968,5.912l-4.224,11.152c-3.544-2.024-10.48-5.744-21.288-5.744
	c-13.008,0-17.904,7.776-17.904,14.528c0,8.784,6.248,13.176,20.952,19.256c17.4,7.096,26.176,15.88,26.176,30.92
	c0,13.344-9.288,25.84-26.688,28.72v17.568h-10.656V306.36z"/>
<g>
	<path style="fill:#8AD5DD;" d="M340.824,249.048v-9.256c-5.32-0.096-10.824-1.744-14.024-4.032l2.192-6.152
		c3.304,2.2,8.072,3.944,13.2,3.944c6.504,0,10.912-3.76,10.912-8.984c0-5.04-3.576-8.16-10.36-10.904
		c-9.352-3.672-15.136-7.88-15.136-15.856c0-7.608,5.416-13.392,13.84-14.768v-9.256h5.688v8.888
		c5.504,0.184,9.256,1.656,11.912,3.208l-2.288,6.056c-1.928-1.104-5.688-3.12-11.552-3.12c-7.056,0-9.72,4.208-9.72,7.88
		c0,4.768,3.4,7.152,11.376,10.456c9.44,3.84,14.2,8.616,14.2,16.776c0,7.24-5.04,14.024-14.488,15.584v9.528h-5.752V249.048z"/>
	<path style="fill:#8AD5DD;" d="M164.12,249.048v-9.256c-5.32-0.096-10.824-1.744-14.024-4.032l2.192-6.152
		c3.304,2.2,8.072,3.944,13.2,3.944c6.504,0,10.912-3.76,10.912-8.984c0-5.04-3.576-8.16-10.36-10.904
		c-9.352-3.672-15.136-7.88-15.136-15.856c0-7.608,5.416-13.392,13.84-14.768v-9.256h5.688v8.888
		c5.504,0.184,9.256,1.656,11.912,3.208l-2.288,6.056c-1.928-1.104-5.688-3.12-11.552-3.12c-7.056,0-9.72,4.208-9.72,7.88
		c0,4.768,3.4,7.152,11.376,10.456c9.44,3.84,14.2,8.616,14.2,16.776c0,7.24-5.04,14.024-14.488,15.584v9.528h-5.752V249.048z"/>
</g>
</svg>