<?xml version="1.0" encoding="iso-8859-1"?>
<!-- Uploaded to: SVG Repo, www.svgrepo.com, Generator: SVG Repo Mixer Tools -->
<svg height="800px" width="800px" version="1.1" id="Layer_1" xmlns="http://www.w3.org/2000/svg" xmlns:xlink="http://www.w3.org/1999/xlink" 
	 viewBox="0 0 504.986 504.986" xml:space="preserve">
<circle style="fill:#56ACE0;" cx="47.693" cy="457.644" r="19.638"/>
<path style="fill:#FFFFFF;" d="M476.932,235.31c0-10.521-9.118-19.638-19.638-19.638s-19.638,9.118-19.638,19.638
	c0,10.521,9.118,19.638,19.638,19.638S476.932,246.531,476.932,235.31z"/>
<path style="fill:#FFC10D;" d="M361.907,28.405c-24.548,0-44.186,19.638-44.186,44.186c0,16.833,23.847,63.825,44.186,98.893
	c20.34-35.77,44.186-82.06,44.186-98.893C406.093,48.044,386.455,28.405,361.907,28.405z"/>
<g>
	<path style="fill:#194F82;" d="M457.293,187.616c-21.742,0-39.978,14.027-45.589,33.666H128.351
		c-38.575,0-69.436,30.86-69.436,69.436s30.86,69.436,69.436,69.436h248.285c23.145,0,41.381,18.937,41.381,41.381
		c0,23.145-18.937,41.381-41.381,41.381H93.282c-6.312-19.638-24.548-33.666-45.589-33.666C21.041,409.249,0,430.992,0,456.942
		c0,26.652,21.742,47.693,47.693,47.693c21.742,0,39.978-14.027,45.589-33.666h283.353c38.575,0,69.436-30.86,69.436-69.436
		s-30.86-69.436-69.436-69.436H128.351c-23.145,0-41.381-18.937-41.381-41.381c0-23.145,18.937-41.381,41.381-41.381h283.353
		c6.312,19.638,23.847,33.666,45.589,33.666c26.652,0,47.693-21.742,47.693-47.693S483.244,187.616,457.293,187.616z
		 M47.693,477.282c-10.521,0-19.638-9.118-19.638-19.638c0-10.521,9.118-19.638,19.638-19.638s19.638,9.118,19.638,19.638
		C67.332,468.164,58.915,477.282,47.693,477.282z M457.293,254.948c-10.521,0-19.638-9.118-19.638-19.638
		c0-10.521,9.118-19.638,19.638-19.638s19.638,9.118,19.638,19.638C476.932,246.531,467.814,254.948,457.293,254.948z"/>
	<path style="fill:#194F82;" d="M373.83,206.553c9.819-16.132,60.318-99.595,60.318-133.962c0-39.978-32.263-72.241-72.241-72.241
		s-72.241,32.263-72.241,72.241c0,34.367,50.499,117.83,60.318,133.962C355.595,215.671,368.219,215.671,373.83,206.553z
		 M361.907,28.405c24.548,0,44.186,19.638,44.186,44.186c0,16.833-23.847,63.825-44.186,98.893
		c-20.34-35.77-44.186-82.06-44.186-98.893C317.721,48.044,337.359,28.405,361.907,28.405z"/>
	<circle style="fill:#194F82;" cx="361.907" cy="68.384" r="14.027"/>
</g>
</svg>